<svg width="64" height="64" viewBox="0 0 64 64" fill="none" xmlns="http://www.w3.org/2000/svg">
<path d="M17.7778 35.4141C24.5525 35.4141 30.0444 29.9142 30.0444 23.1297C30.0444 16.3451 24.5525 10.8452 17.7778 10.8452C11.0031 10.8452 5.51111 16.3451 5.51111 23.1297C5.51111 29.9142 11.0031 35.4141 17.7778 35.4141Z" fill="#2563EB" stroke="#2563EB" stroke-width="0.5" stroke-miterlimit="10"/>
<path d="M16.3538 35.4752C13.5502 39.3312 9.77779 40.8886 4.44446 40.8886C6.99912 39.1854 9.55379 35.8503 10.5458 33.229L16.3538 35.4752Z" fill="#2563EB"/>
<path d="M46.2222 48.9601C52.9969 48.9601 58.4889 43.4681 58.4889 36.6934C58.4889 29.9187 52.9969 24.4268 46.2222 24.4268C39.4475 24.4268 33.9556 29.9187 33.9556 36.6934C33.9556 43.4681 39.4475 48.9601 46.2222 48.9601Z" fill="#2563EB" stroke="#2563EB" stroke-width="0.5" stroke-miterlimit="10"/>
<path d="M47.6462 49.0577C50.4498 52.9137 54.2222 54.4711 59.5556 54.4711C57.0009 52.768 54.4462 49.4329 53.4542 46.8115L47.6462 49.0577Z" fill="#2563EB"/>
<path d="M11.5555 24.8891C12.5374 24.8891 13.3333 24.0931 13.3333 23.1113C13.3333 22.1294 12.5374 21.3335 11.5555 21.3335C10.5737 21.3335 9.77777 22.1294 9.77777 23.1113C9.77777 24.0931 10.5737 24.8891 11.5555 24.8891Z" fill="white"/>
<path d="M17.7778 24.8891C18.7596 24.8891 19.5556 24.0931 19.5556 23.1113C19.5556 22.1294 18.7596 21.3335 17.7778 21.3335C16.7959 21.3335 16 22.1294 16 23.1113C16 24.0931 16.7959 24.8891 17.7778 24.8891Z" fill="white"/>
<path d="M24 24.8891C24.9818 24.8891 25.7778 24.0931 25.7778 23.1113C25.7778 22.1294 24.9818 21.3335 24 21.3335C23.0182 21.3335 22.2222 22.1294 22.2222 23.1113C22.2222 24.0931 23.0182 24.8891 24 24.8891Z" fill="white"/>
<path d="M10.5458 33.2295C9.55379 35.8517 6.99912 39.1859 4.44446 40.889C9.77779 40.889 13.5502 39.3317 16.3538 35.4757" stroke="white" stroke-width="0.5" stroke-miterlimit="10" stroke-linecap="round" stroke-linejoin="round"/>
<path d="M19.8 35.3918C25.7111 34.4265 30.2222 29.2949 30.2222 23.1109C30.2222 16.2381 24.6506 10.6665 17.7778 10.6665C10.9049 10.6665 5.33331 16.2381 5.33331 23.1109C5.33331 26.0745 6.36887 28.7954 8.09776 30.9332" stroke="white" stroke-width="0.5" stroke-miterlimit="10" stroke-linecap="round"/>
<path d="M52.4445 38.4711C53.4263 38.4711 54.2222 37.6751 54.2222 36.6933C54.2222 35.7115 53.4263 34.9155 52.4445 34.9155C51.4626 34.9155 50.6667 35.7115 50.6667 36.6933C50.6667 37.6751 51.4626 38.4711 52.4445 38.4711Z" fill="white"/>
<path d="M46.2222 38.4711C47.2041 38.4711 48 37.6751 48 36.6933C48 35.7115 47.2041 34.9155 46.2222 34.9155C45.2404 34.9155 44.4445 35.7115 44.4445 36.6933C44.4445 37.6751 45.2404 38.4711 46.2222 38.4711Z" fill="white"/>
<path d="M40 38.4711C40.9818 38.4711 41.7778 37.6751 41.7778 36.6933C41.7778 35.7115 40.9818 34.9155 40 34.9155C39.0182 34.9155 38.2222 35.7115 38.2222 36.6933C38.2222 37.6751 39.0182 38.4711 40 38.4711Z" fill="white"/>
<path d="M53.4542 46.8115C54.4462 49.4337 57.0009 52.768 59.5556 54.4711C54.2222 54.4711 50.4498 52.9137 47.6462 49.0577" stroke="white" stroke-width="0.5" stroke-miterlimit="10" stroke-linecap="round" stroke-linejoin="round"/>
<path d="M44.2 48.9744C38.2889 48.009 33.7778 42.8775 33.7778 36.6935C33.7778 29.8206 39.3493 24.249 46.2222 24.249C53.0951 24.249 58.6667 29.8206 58.6667 36.6935C58.6667 39.657 57.6311 42.3779 55.9022 44.5157" stroke="white" stroke-width="0.5" stroke-miterlimit="10" stroke-linecap="round"/>
</svg>
