<svg width="64" height="64" viewBox="0 0 64 64" fill="none" xmlns="http://www.w3.org/2000/svg">
<path d="M53.7919 18.0002H48.8293L36.6533 30.1709C37.0726 31.2397 37.1112 32.4202 36.7625 33.5141C36.4138 34.608 35.699 35.5484 34.7385 36.1773C33.7779 36.8061 32.6301 37.0851 31.4881 36.9672C30.346 36.8493 29.2794 36.3417 28.4676 35.5299C27.6558 34.7181 27.1482 33.6515 27.0303 32.5094C26.9124 31.3674 27.1914 30.2196 27.8202 29.259C28.4491 28.2985 29.3895 27.5837 30.4834 27.235C31.5773 26.8863 32.7578 26.9249 33.8266 27.3442L45.9999 15.1709V10.2082C46.0002 9.54416 46.2639 8.90734 46.7333 8.43755L51.3466 3.82422C51.432 3.73829 51.5392 3.67725 51.6566 3.64765C51.7741 3.61805 51.8974 3.62101 52.0133 3.65622C52.2506 3.72555 52.4266 3.92288 52.4746 4.16555L53.7013 10.3016L59.8346 11.5282C60.0746 11.5762 60.2719 11.7522 60.3413 11.9896C60.3763 12.1048 60.3794 12.2275 60.3503 12.3444C60.3212 12.4613 60.2609 12.5681 60.1759 12.6536L55.5599 17.2669C55.0908 17.7356 54.4551 17.9993 53.7919 18.0002Z" fill="#2563EB"/>
<path d="M7 32C7 38.6304 9.63392 44.9893 14.3223 49.6777C19.0107 54.3661 25.3696 57 32 57C35.283 57 38.5339 56.3534 41.5671 55.097C44.6002 53.8406 47.3562 51.9991 49.6777 49.6777C51.9991 47.3562 53.8406 44.6002 55.097 41.5671C56.3534 38.534 57 35.2831 57 32C57 29.6053 56.664 27.2907 56.0373 25.1013C55.9128 24.5987 55.9881 24.0672 56.2474 23.6189C56.5066 23.1706 56.9297 22.8404 57.4276 22.6977C57.9254 22.555 58.4592 22.611 58.9166 22.8539C59.374 23.0968 59.7194 23.5077 59.88 24C60.6107 26.544 61 29.2267 61 32C61 48.016 48.016 61 32 61C15.984 61 3 48.016 3 32C3 15.984 15.984 3.00001 32 3.00001C34.7067 2.99735 37.3973 3.37335 40 4.11735C40.2538 4.18853 40.491 4.30917 40.6979 4.47233C40.9049 4.6355 41.0776 4.83796 41.2061 5.06809C41.3346 5.29821 41.4163 5.55146 41.4466 5.81328C41.4769 6.0751 41.4551 6.34032 41.3825 6.59369C41.31 6.84707 41.188 7.0836 41.0237 7.28969C40.8594 7.49579 40.656 7.66738 40.4252 7.7946C40.1944 7.92182 39.9407 8.00216 39.6787 8.031C39.4167 8.05985 39.1516 8.03663 38.8987 7.96268C36.6551 7.3223 34.3332 6.99828 32 7.00001C25.3696 7.00001 19.0107 9.63393 14.3223 14.3223C9.63392 19.0108 7 25.3696 7 32Z" fill="#2563EB"/>
<path d="M19 31.9999C19.0074 33.7661 19.3748 35.5123 20.0796 37.1318C20.7844 38.7513 21.8119 40.2101 23.0993 41.4192C24.3868 42.6284 25.9071 43.5624 27.5676 44.1644C29.2281 44.7663 30.9938 45.0235 32.757 44.9203C34.5202 44.817 36.2438 44.3555 37.8227 43.5639C39.4016 42.7722 40.8025 41.6671 41.9401 40.316C43.0776 38.9648 43.9278 37.396 44.4387 35.7054C44.9497 34.0147 45.1107 32.2376 44.912 30.4826C44.856 30.1272 44.8972 29.7632 45.0312 29.4293C45.1652 29.0953 45.3871 28.8039 45.6732 28.5858C45.9594 28.3677 46.2993 28.231 46.6568 28.1903C47.0143 28.1496 47.3761 28.2064 47.704 28.3546C48.3733 28.6533 48.824 29.2906 48.8827 30.0213C49.2967 33.5286 48.6078 37.0778 46.9117 40.1755C45.2156 43.2732 42.5965 45.7656 39.4186 47.3062C36.2406 48.8468 32.6617 49.359 29.1792 48.7718C25.6967 48.1845 22.4836 46.5268 19.9867 44.0293C17.4904 41.5344 15.8323 38.3246 15.2425 34.8449C14.6526 31.3653 15.1602 27.7884 16.6947 24.6102C18.2293 21.432 20.7149 18.8101 23.8066 17.1082C26.8984 15.4062 30.4432 14.7085 33.9493 15.1119C34.2144 15.1365 34.4719 15.2138 34.7067 15.3392C34.9415 15.4646 35.1489 15.6356 35.3168 15.8422C35.4846 16.0488 35.6096 16.2868 35.6842 16.5423C35.7589 16.7978 35.7818 17.0656 35.7517 17.3301C35.7215 17.5946 35.6388 17.8504 35.5085 18.0825C35.3782 18.3146 35.2029 18.5184 34.9928 18.6818C34.7827 18.8453 34.5421 18.9652 34.2851 19.0345C34.028 19.1037 33.7598 19.121 33.496 19.0853C31.6747 18.8747 29.8295 19.0517 28.0815 19.6046C26.3335 20.1574 24.7221 21.0738 23.3532 22.2933C21.9843 23.5129 20.8888 25.0082 20.1385 26.6811C19.3883 28.3539 19.0003 30.1665 19 31.9999Z" fill="#2563EB"/>
</svg>
