<svg width="64" height="64" viewBox="0 0 64 64" fill="none" xmlns="http://www.w3.org/2000/svg">
<path d="M42.1334 5.89315C41.0401 4.79982 39.1467 5.54649 39.1467 7.06649V16.3732C39.1467 20.2665 42.4534 23.4932 46.4801 23.4932C49.0134 23.5198 52.5334 23.5198 55.5467 23.5198C57.0667 23.5198 57.8667 21.7332 56.8001 20.6665C52.9601 16.7998 46.0801 9.83982 42.1334 5.89315Z" fill="#2563EB"/>
<path d="M54.6666 27.1735H46.96C40.64 27.1735 35.4933 22.0268 35.4933 15.7068V8.00016C35.4933 6.5335 34.2933 5.3335 32.8266 5.3335H21.52C13.3066 5.3335 6.66663 10.6668 6.66663 20.1868V43.8135C6.66663 53.3335 13.3066 58.6668 21.52 58.6668H42.48C50.6933 58.6668 57.3333 53.3335 57.3333 43.8135V29.8402C57.3333 28.3735 56.1333 27.1735 54.6666 27.1735ZM30.6666 47.3335H20C18.9066 47.3335 18 46.4268 18 45.3335C18 44.2402 18.9066 43.3335 20 43.3335H30.6666C31.76 43.3335 32.6666 44.2402 32.6666 45.3335C32.6666 46.4268 31.76 47.3335 30.6666 47.3335ZM36 36.6668H20C18.9066 36.6668 18 35.7602 18 34.6668C18 33.5735 18.9066 32.6668 20 32.6668H36C37.0933 32.6668 38 33.5735 38 34.6668C38 35.7602 37.0933 36.6668 36 36.6668Z" fill="#2563EB"/>
</svg>
