<svg width="48" height="48" viewBox="0 0 48 48" fill="none" xmlns="http://www.w3.org/2000/svg">
<path d="M42.6667 0C44.0812 0 45.4377 0.561903 46.4379 1.5621C47.4381 2.56229 48 3.91885 48 5.33333V10.6667C48 12.0812 47.4381 13.4377 46.4379 14.4379C45.4377 15.4381 44.0812 16 42.6667 16H5.33333C3.91885 16 2.56229 15.4381 1.5621 14.4379C0.561903 13.4377 0 12.0812 0 10.6667V5.33333C0 3.91885 0.561903 2.56229 1.5621 1.5621C2.56229 0.561903 3.91885 0 5.33333 0H42.6667ZM16 21.3333C17.4145 21.3333 18.771 21.8952 19.7712 22.8954C20.7714 23.8956 21.3333 25.2522 21.3333 26.6667V42.6667C21.3333 44.0812 20.7714 45.4377 19.7712 46.4379C18.771 47.4381 17.4145 48 16 48H5.33333C3.91885 48 2.56229 47.4381 1.5621 46.4379C0.561903 45.4377 0 44.0812 0 42.6667V26.6667C0 25.2522 0.561903 23.8956 1.5621 22.8954C2.56229 21.8952 3.91885 21.3333 5.33333 21.3333H16ZM45.3333 21.3333C46.0406 21.3333 46.7189 21.6143 47.219 22.1144C47.7191 22.6145 48 23.2928 48 24C48 24.7072 47.7191 25.3855 47.219 25.8856C46.7189 26.3857 46.0406 26.6667 45.3333 26.6667H29.3333C28.6261 26.6667 27.9478 26.3857 27.4477 25.8856C26.9476 25.3855 26.6667 24.7072 26.6667 24C26.6667 23.2928 26.9476 22.6145 27.4477 22.1144C27.9478 21.6143 28.6261 21.3333 29.3333 21.3333H45.3333ZM45.3333 32C46.0406 32 46.7189 32.281 47.219 32.7811C47.7191 33.2811 48 33.9594 48 34.6667C48 35.3739 47.7191 36.0522 47.219 36.5523C46.7189 37.0524 46.0406 37.3333 45.3333 37.3333H29.3333C28.6261 37.3333 27.9478 37.0524 27.4477 36.5523C26.9476 36.0522 26.6667 35.3739 26.6667 34.6667C26.6667 33.9594 26.9476 33.2811 27.4477 32.7811C27.9478 32.281 28.6261 32 29.3333 32H45.3333ZM45.3333 42.6667C46.0406 42.6667 46.7189 42.9476 47.219 43.4477C47.7191 43.9478 48 44.6261 48 45.3333C48 46.0406 47.7191 46.7189 47.219 47.219C46.7189 47.7191 46.0406 48 45.3333 48H29.3333C28.6261 48 27.9478 47.7191 27.4477 47.219C26.9476 46.7189 26.6667 46.0406 26.6667 45.3333C26.6667 44.6261 26.9476 43.9478 27.4477 43.4477C27.9478 42.9476 28.6261 42.6667 29.3333 42.6667H45.3333Z" fill="#2563EB"/>
</svg>
