<svg width="64" height="64" viewBox="0 0 64 64" fill="none" xmlns="http://www.w3.org/2000/svg">
<path d="M50.6667 16H42.6667V13.3333C42.6667 10.4 40.2667 8 37.3334 8H26.6667C23.7334 8 21.3334 10.4 21.3334 13.3333V16H13.3334C8.80004 16 5.33337 19.4667 5.33337 24V48C5.33337 52.5333 8.80004 56 13.3334 56H50.6667C55.2 56 58.6667 52.5333 58.6667 48V24C58.6667 19.4667 55.2 16 50.6667 16ZM26.6667 13.3333H37.3334V16H26.6667V13.3333ZM53.3334 48C53.3334 49.6 52.2667 50.6667 50.6667 50.6667H13.3334C11.7334 50.6667 10.6667 49.6 10.6667 48V33.0667L23.2 37.3333H40C40.2667 37.3333 40.5334 37.3333 40.8 37.0667L53.3334 32.8V48Z" fill="#2563EB"/>
</svg>
