<svg width="64" height="64" viewBox="0 0 64 64" fill="none" xmlns="http://www.w3.org/2000/svg">
<path d="M32 31.9999L8.128 22.4639L9.6 57.5999H3.2L4.736 21.0879L0 19.1999L32 6.3999L64 19.1999L32 31.9999ZM32 15.9999C30.24 15.9999 28.8 16.7039 28.8 17.5999C28.8 18.4959 30.24 19.1999 32 19.1999C33.76 19.1999 35.2 18.4959 35.2 17.5999C35.2 16.7039 33.76 15.9999 32 15.9999ZM32 35.1999L49.824 28.0639C52.096 31.0719 53.664 34.6879 54.176 38.6239C53.216 38.4959 52.224 38.3999 51.2 38.3999C43.04 38.3999 35.904 42.7839 32 49.3119C30.0174 45.9872 27.206 43.2338 23.8406 41.3212C20.4752 39.4085 16.671 38.4019 12.8 38.3999C11.776 38.3999 10.784 38.4959 9.824 38.6239C10.336 34.6879 11.904 31.0719 14.176 28.0639L32 35.1999Z" fill="#2563EB"/>
</svg>
