<svg width="64" height="64" viewBox="0 0 64 64" fill="none" xmlns="http://www.w3.org/2000/svg">
<path d="M57.875 2.5376L39.45 9.45635L46.0625 13.6251C34.25 28.5001 17.1625 37.6626 2.72498 41.1501L6.81498 48.6001C23.0375 43.3126 40.2125 33.7751 51.275 16.9251L56.3125 20.1001L57.875 2.5376ZM58.8375 17.1251L58.2375 23.9751L51.825 19.9251C51.6 20.2626 51.3625 20.5876 51.125 20.9251V60.8751H60.875V17.1251H58.8375ZM40.0125 33.1251C38.425 34.5001 36.7875 35.8001 35.125 37.0251V60.8751H44.875V33.1251H40.0125ZM24.55 43.6251C22.75 44.5751 20.95 45.4501 19.125 46.2751V60.8751H28.875V43.6251H24.55ZM3.12498 49.1251V60.8751H12.875V49.1251H12.165C10.3125 49.8126 8.46123 50.4501 6.62123 51.0376L5.73873 51.3126L4.53873 49.1251H3.12498Z" fill="#2563EB"/>
</svg>
