<svg width="64" height="64" viewBox="0 0 64 64" fill="none" xmlns="http://www.w3.org/2000/svg">
<path d="M58.6667 60.6668H13.3334C7.81337 60.6668 3.33337 56.1868 3.33337 50.6668V5.3335C3.33337 4.24016 4.24004 3.3335 5.33337 3.3335C6.42671 3.3335 7.33337 4.24016 7.33337 5.3335V50.6668C7.33337 53.9735 10.0267 56.6668 13.3334 56.6668H58.6667C59.76 56.6668 60.6667 57.5735 60.6667 58.6668C60.6667 59.7602 59.76 60.6668 58.6667 60.6668Z" fill="#2563EB"/>
<path d="M13.3334 47.3332C12.8801 47.3332 12.4001 47.1732 12.0267 46.8532C11.2001 46.1332 11.0934 44.8799 11.8134 44.0265L24.0534 29.7332C25.3867 28.1865 27.3067 27.2532 29.3334 27.1732C31.3601 27.1199 33.3601 27.8665 34.8001 29.3065L37.3334 31.8399C38.0001 32.5065 38.8534 32.8265 39.8134 32.8265C40.7467 32.7999 41.6001 32.3732 42.2134 31.6532L54.4534 17.3599C55.1734 16.5332 56.4267 16.4265 57.2801 17.1465C58.1067 17.8665 58.2134 19.1199 57.4934 19.9732L45.2534 34.2665C43.9201 35.8132 42.0001 36.7465 39.9734 36.8265C37.9201 36.8799 35.9467 36.1332 34.5067 34.6932L32.0001 32.1599C31.3334 31.4932 30.4534 31.1465 29.5201 31.1732C28.5867 31.1999 27.7334 31.6265 27.1201 32.3465L14.8801 46.6399C14.4534 47.0932 13.8934 47.3332 13.3334 47.3332Z" fill="#2563EB"/>
</svg>
