<svg width="62" height="61" viewBox="0 0 62 61" fill="none" xmlns="http://www.w3.org/2000/svg">
<path fill-rule="evenodd" clip-rule="evenodd" d="M10.3647 0.736854C10.965 0.214554 11.7482 -0.0478961 12.5419 0.00723956C13.3357 0.0623753 14.0751 0.43058 14.5974 1.03085C15.1197 1.63113 15.3821 2.4143 15.327 3.20808C15.2719 4.00186 14.9037 4.74122 14.3034 5.26352C9.68339 9.28219 6.54472 15.1649 5.99006 21.9115C5.92499 22.7045 5.54757 23.4392 4.94083 23.9539C4.33408 24.4686 3.54772 24.7213 2.75472 24.6562C1.96172 24.5911 1.22705 24.2137 0.712329 23.607C0.197604 23.0002 -0.0550109 22.2139 0.0100555 21.4209C0.695389 13.0982 4.57672 5.77152 10.3647 0.736854ZM47.4047 1.03019C47.9271 0.430171 48.6664 0.0621953 49.46 0.00718656C50.2536 -0.0478222 51.0366 0.214641 51.6367 0.736854C57.4234 5.77152 61.3061 13.0969 61.9901 21.4209C62.0308 21.8179 61.9918 22.219 61.8756 22.6008C61.7593 22.9825 61.568 23.3373 61.313 23.6442C61.0579 23.9511 60.7442 24.2041 60.3901 24.3883C60.0361 24.5724 59.6488 24.6841 59.2511 24.7167C58.8533 24.7494 58.4531 24.7023 58.0737 24.5784C57.6944 24.4544 57.3436 24.256 57.0419 23.9947C56.7402 23.7335 56.4937 23.4147 56.3167 23.057C56.1398 22.6993 56.036 22.3098 56.0114 21.9115C55.4554 15.1649 52.3181 9.28219 47.6981 5.26219C47.098 4.73984 46.7301 4.00055 46.6751 3.20693C46.62 2.4133 46.8825 1.63032 47.4047 1.03019ZM31.0007 3.66619C41.5581 3.66619 50.3607 11.7462 51.2621 22.2649L51.9007 29.7182C52.1859 33.0443 53.2477 36.2571 55.0007 39.0982L56.9621 42.2769C58.9327 45.4675 57.8581 48.7649 54.1407 49.2595C49.8901 49.8249 42.7914 50.3315 31.0007 50.3315C19.2101 50.3315 12.1114 49.8249 7.86072 49.2595C4.14339 48.7649 3.06872 45.4675 5.03805 42.2769L7.00072 39.0995C8.7546 36.2578 9.81688 33.044 10.1021 29.7169L10.7421 22.2635C11.6407 11.7462 20.4421 3.66619 31.0007 3.66619ZM31.0007 54.3329C26.6661 54.3329 22.9421 54.2662 19.7434 54.1502C20.8106 56.2144 22.4251 57.9452 24.4101 59.1533C26.3952 60.3613 28.6743 61 30.9981 60.9995C33.3218 61 35.6009 60.3613 37.586 59.1533C39.571 57.9452 41.1855 56.2144 42.2527 54.1502C39.0541 54.2649 35.3341 54.3329 31.0007 54.3329Z" fill="#2563EB"/>
</svg>
